<svg width="773" height="200" viewBox="0 0 773 200" fill="none" xmlns="http://www.w3.org/2000/svg">
<path d="M264.952 155.64C255.651 155.64 248.312 154.445 242.936 152.056C237.56 149.581 233.72 145.869 231.416 140.92C229.112 135.971 227.96 129.741 227.96 122.232V63.48H248.44V122.232C248.44 128.717 249.933 133.155 252.92 135.544C255.992 137.848 261.155 139 268.408 139H293.112C300.365 139 305.485 137.848 308.472 135.544C311.544 133.155 313.08 128.717 313.08 122.232V63.48H333.56V122.232C333.56 129.741 332.408 135.971 330.104 140.92C327.8 145.869 323.96 149.581 318.584 152.056C313.208 154.445 305.869 155.64 296.568 155.64H264.952ZM351.46 155V63.48H372.196L436.964 129.272V63.48H457.444V155H436.708L371.94 89.08V155H351.46ZM475.335 155V63.48H495.815V155H475.335ZM513.71 155V63.48H534.19V155H513.71Z" fill="#0B0A0B"/>
<path d="M552.085 155V63.48H649.877V80.12H572.565V105.464H639.893V122.104H572.565V155H552.085ZM703.512 155V122.36L655 63.48H680.344L713.752 104.952L747.032 63.48H772.376L724.12 122.232V155H703.512Z" fill="#0A0A0A"/>
<path d="M83.7777 199.713L59.7485 186.277L101.925 117.741L121.413 128.654L83.7777 199.713ZM57.6853 71.3495L95.0575 0.289751L118.826 13.9824L76.649 82.5199L57.6853 71.3495ZM129.563 86.5262L173.251 154.163L149.149 168.309H149.065L110.334 97.96L129.563 86.5262ZM0.209167 117.411L80.4834 119.78L81.003 141.863L0.209167 145.284V117.46V117.411ZM98.0928 58.137L178.893 54.7155L179.154 82.3305H179.103H179.1L98.0928 80.4834V58.137ZM49.0098 113.209L5.84778 45.3079L29.5495 31.2432L67.9738 102.039L49.0098 113.209Z" fill="url(#paint0_linear_0_1)" stroke="#F43FCC" stroke-width="0.418333"/>
<defs>
<linearGradient id="paint0_linear_0_1" x1="89.6825" y1="5.92883e-07" x2="67.5" y2="200" gradientUnits="userSpaceOnUse">
<stop offset="0.526042" stop-color="#F72DD6"/>
<stop offset="1" stop-color="#862DF7" stop-opacity="0"/>
</linearGradient>
</defs>
</svg>
